<svg id="visual" viewBox="0 0 960 540" width="960" height="540" xmlns="http://www.w3.org/2000/svg" xmlns:xlink="http://www.w3.org/1999/xlink" version="1.1"><rect x="0" y="0" width="960" height="540" fill="#2a2b2e"></rect><defs><linearGradient id="grad1_0" x1="43.8%" y1="0%" x2="100%" y2="100%"><stop offset="14.444444444444446%" stop-color="#2a2b2e" stop-opacity="1"></stop><stop offset="85.55555555555554%" stop-color="#2a2b2e" stop-opacity="1"></stop></linearGradient></defs><defs><linearGradient id="grad2_0" x1="0%" y1="0%" x2="56.3%" y2="100%"><stop offset="14.444444444444446%" stop-color="#2a2b2e" stop-opacity="1"></stop><stop offset="85.55555555555554%" stop-color="#2a2b2e" stop-opacity="1"></stop></linearGradient></defs><g transform="translate(960, 0)"><path d="M0 486C-68.4 485.2 -136.8 484.3 -186 449C-235.1 413.7 -265 343.9 -289.9 289.9C-314.9 235.9 -334.9 197.6 -366.8 151.9C-398.6 106.2 -442.3 53.1 -486 0L0 0Z" fill="#ffd89a"></path></g><g transform="translate(0, 540)"><path d="M0 -486C52 -453.3 104 -420.7 166.8 -402.8C229.7 -384.9 303.5 -381.8 343.7 -343.7C383.8 -305.5 390.2 -232.3 408.4 -169.1C426.5 -106 456.2 -53 486 0L0 0Z" fill="#ffd89a"></path></g></svg>