<svg id="visual" viewBox="0 0 900 600" width="900" height="600" xmlns="http://www.w3.org/2000/svg" xmlns:xlink="http://www.w3.org/1999/xlink" version="1.1"><rect x="0" y="0" width="900" height="600" fill="#001220"></rect><path d="M0 206L21.5 208.7C43 211.3 86 216.7 128.8 219.7C171.7 222.7 214.3 223.3 257.2 222.5C300 221.7 343 219.3 385.8 213.5C428.7 207.7 471.3 198.3 514.2 193.2C557 188 600 187 642.8 194.3C685.7 201.7 728.3 217.3 771.2 227.2C814 237 857 241 878.5 243L900 245L900 0L878.5 0C857 0 814 0 771.2 0C728.3 0 685.7 0 642.8 0C600 0 557 0 514.2 0C471.3 0 428.7 0 385.8 0C343 0 300 0 257.2 0C214.3 0 171.7 0 128.8 0C86 0 43 0 21.5 0L0 0Z" fill="#c62368"></path><path d="M0 185L21.5 183.7C43 182.3 86 179.7 128.8 175.7C171.7 171.7 214.3 166.3 257.2 169.2C300 172 343 183 385.8 185.2C428.7 187.3 471.3 180.7 514.2 179.7C557 178.7 600 183.3 642.8 180.8C685.7 178.3 728.3 168.7 771.2 168.3C814 168 857 177 878.5 181.5L900 186L900 0L878.5 0C857 0 814 0 771.2 0C728.3 0 685.7 0 642.8 0C600 0 557 0 514.2 0C471.3 0 428.7 0 385.8 0C343 0 300 0 257.2 0C214.3 0 171.7 0 128.8 0C86 0 43 0 21.5 0L0 0Z" fill="#da3f67"></path><path d="M0 93L21.5 93C43 93 86 93 128.8 99.8C171.7 106.7 214.3 120.3 257.2 121.8C300 123.3 343 112.7 385.8 109.5C428.7 106.3 471.3 110.7 514.2 115C557 119.3 600 123.7 642.8 125.3C685.7 127 728.3 126 771.2 123C814 120 857 115 878.5 112.5L900 110L900 0L878.5 0C857 0 814 0 771.2 0C728.3 0 685.7 0 642.8 0C600 0 557 0 514.2 0C471.3 0 428.7 0 385.8 0C343 0 300 0 257.2 0C214.3 0 171.7 0 128.8 0C86 0 43 0 21.5 0L0 0Z" fill="#eb5967"></path><path d="M0 33L21.5 40C43 47 86 61 128.8 68.7C171.7 76.3 214.3 77.7 257.2 79.8C300 82 343 85 385.8 82C428.7 79 471.3 70 514.2 70C557 70 600 79 642.8 76.8C685.7 74.7 728.3 61.3 771.2 59.7C814 58 857 68 878.5 73L900 78L900 0L878.5 0C857 0 814 0 771.2 0C728.3 0 685.7 0 642.8 0C600 0 557 0 514.2 0C471.3 0 428.7 0 385.8 0C343 0 300 0 257.2 0C214.3 0 171.7 0 128.8 0C86 0 43 0 21.5 0L0 0Z" fill="#fa7268"></path></svg>