<svg id="visual" viewBox="0 0 960 540" width="960" height="540" xmlns="http://www.w3.org/2000/svg" xmlns:xlink="http://www.w3.org/1999/xlink" version="1.1"><rect x="0" y="0" width="960" height="540" fill="#ffd89a"></rect><path d="M0 371L26.7 380C53.3 389 106.7 407 160 407.2C213.3 407.3 266.7 389.7 320 383.8C373.3 378 426.7 384 480 387.7C533.3 391.3 586.7 392.7 640 389.3C693.3 386 746.7 378 800 378.8C853.3 379.7 906.7 389.3 933.3 394.2L960 399L960 541L933.3 541C906.7 541 853.3 541 800 541C746.7 541 693.3 541 640 541C586.7 541 533.3 541 480 541C426.7 541 373.3 541 320 541C266.7 541 213.3 541 160 541C106.7 541 53.3 541 26.7 541L0 541Z" fill="#fe5f55"></path><path d="M0 425L26.7 423.8C53.3 422.7 106.7 420.3 160 424.7C213.3 429 266.7 440 320 442.7C373.3 445.3 426.7 439.7 480 435.7C533.3 431.7 586.7 429.3 640 430.3C693.3 431.3 746.7 435.7 800 437.3C853.3 439 906.7 438 933.3 437.5L960 437L960 541L933.3 541C906.7 541 853.3 541 800 541C746.7 541 693.3 541 640 541C586.7 541 533.3 541 480 541C426.7 541 373.3 541 320 541C266.7 541 213.3 541 160 541C106.7 541 53.3 541 26.7 541L0 541Z" fill="#ff4b3f"></path><path d="M0 449L26.7 453C53.3 457 106.7 465 160 469.7C213.3 474.3 266.7 475.7 320 474.3C373.3 473 426.7 469 480 463.3C533.3 457.7 586.7 450.3 640 449.7C693.3 449 746.7 455 800 456.5C853.3 458 906.7 455 933.3 453.5L960 452L960 541L933.3 541C906.7 541 853.3 541 800 541C746.7 541 693.3 541 640 541C586.7 541 533.3 541 480 541C426.7 541 373.3 541 320 541C266.7 541 213.3 541 160 541C106.7 541 53.3 541 26.7 541L0 541Z" fill="#ff3226"></path><path d="M0 488L26.7 488.8C53.3 489.7 106.7 491.3 160 493.2C213.3 495 266.7 497 320 500C373.3 503 426.7 507 480 505.7C533.3 504.3 586.7 497.7 640 493.5C693.3 489.3 746.7 487.7 800 486.8C853.3 486 906.7 486 933.3 486L960 486L960 541L933.3 541C906.7 541 853.3 541 800 541C746.7 541 693.3 541 640 541C586.7 541 533.3 541 480 541C426.7 541 373.3 541 320 541C266.7 541 213.3 541 160 541C106.7 541 53.3 541 26.7 541L0 541Z" fill="#ff0000"></path></svg>