<svg id="visual" viewBox="0 0 960 540" width="960" height="540" xmlns="http://www.w3.org/2000/svg" xmlns:xlink="http://www.w3.org/1999/xlink" version="1.1"><rect x="0" y="0" width="960" height="540" fill="#ffffff"></rect><path d="M0 375L22.8 383.2C45.7 391.3 91.3 407.7 137 410.2C182.7 412.7 228.3 401.3 274 400.5C319.7 399.7 365.3 409.3 411.2 405C457 400.7 503 382.3 548.8 379.2C594.7 376 640.3 388 686 392.8C731.7 397.7 777.3 395.3 823 390.2C868.7 385 914.3 377 937.2 373L960 369L960 541L937.2 541C914.3 541 868.7 541 823 541C777.3 541 731.7 541 686 541C640.3 541 594.7 541 548.8 541C503 541 457 541 411.2 541C365.3 541 319.7 541 274 541C228.3 541 182.7 541 137 541C91.3 541 45.7 541 22.8 541L0 541Z" fill="#fe5f55"></path><path d="M0 416L22.8 413.7C45.7 411.3 91.3 406.7 137 410.7C182.7 414.7 228.3 427.3 274 433C319.7 438.7 365.3 437.3 411.2 431.8C457 426.3 503 416.7 548.8 418.7C594.7 420.7 640.3 434.3 686 440.7C731.7 447 777.3 446 823 444.7C868.7 443.3 914.3 441.7 937.2 440.8L960 440L960 541L937.2 541C914.3 541 868.7 541 823 541C777.3 541 731.7 541 686 541C640.3 541 594.7 541 548.8 541C503 541 457 541 411.2 541C365.3 541 319.7 541 274 541C228.3 541 182.7 541 137 541C91.3 541 45.7 541 22.8 541L0 541Z" fill="#ff5045"></path><path d="M0 468L22.8 465.8C45.7 463.7 91.3 459.3 137 457.7C182.7 456 228.3 457 274 460.3C319.7 463.7 365.3 469.3 411.2 467C457 464.7 503 454.3 548.8 450C594.7 445.7 640.3 447.3 686 447.5C731.7 447.7 777.3 446.3 823 445.3C868.7 444.3 914.3 443.7 937.2 443.3L960 443L960 541L937.2 541C914.3 541 868.7 541 823 541C777.3 541 731.7 541 686 541C640.3 541 594.7 541 548.8 541C503 541 457 541 411.2 541C365.3 541 319.7 541 274 541C228.3 541 182.7 541 137 541C91.3 541 45.7 541 22.8 541L0 541Z" fill="#ff3f33"></path><path d="M0 483L22.8 479.5C45.7 476 91.3 469 137 468.8C182.7 468.7 228.3 475.3 274 481.2C319.7 487 365.3 492 411.2 489.2C457 486.3 503 475.7 548.8 473.7C594.7 471.7 640.3 478.3 686 480.7C731.7 483 777.3 481 823 479.2C868.7 477.3 914.3 475.7 937.2 474.8L960 474L960 541L937.2 541C914.3 541 868.7 541 823 541C777.3 541 731.7 541 686 541C640.3 541 594.7 541 548.8 541C503 541 457 541 411.2 541C365.3 541 319.7 541 274 541C228.3 541 182.7 541 137 541C91.3 541 45.7 541 22.8 541L0 541Z" fill="#ff2a1f"></path><path d="M0 509L22.8 508.3C45.7 507.7 91.3 506.3 137 506.2C182.7 506 228.3 507 274 506.3C319.7 505.7 365.3 503.3 411.2 502.3C457 501.3 503 501.7 548.8 502.8C594.7 504 640.3 506 686 507.8C731.7 509.7 777.3 511.3 823 509.2C868.7 507 914.3 501 937.2 498L960 495L960 541L937.2 541C914.3 541 868.7 541 823 541C777.3 541 731.7 541 686 541C640.3 541 594.7 541 548.8 541C503 541 457 541 411.2 541C365.3 541 319.7 541 274 541C228.3 541 182.7 541 137 541C91.3 541 45.7 541 22.8 541L0 541Z" fill="#ff0000"></path></svg>